<svg width="238" height="92" viewBox="0 0 238 92" fill="none" xmlns="http://www.w3.org/2000/svg">
    <path
        d="M205.604 60C205.724 77.52 211.484 88.32 218.924 88.32C223.124 88.32 227.924 84.84 232.604 77.16L234.764 78.36C230.684 87 223.604 91.32 216.524 91.32C205.124 91.32 193.604 80.52 193.604 59.88C193.604 38.4 205.844 30 216.764 30C226.244 30 237.884 35.76 237.284 60H205.604ZM205.604 57.6H225.884C227.084 43.56 223.604 32.4 216.884 32.4C210.164 32.4 205.724 38.4 205.604 57.6Z"
        fill="white" />
    <path
        d="M156.118 46.92V85.2C156.118 87 157.078 88.2 158.878 88.2H159.718V90H140.518V88.2H141.478C143.158 88.2 144.118 87 144.118 85.2V40.8C144.118 39 143.158 37.8 141.358 37.8H140.518V36C146.038 36 153.238 32.76 155.758 30H156.118V37.2C158.878 32.28 164.398 30 170.038 30C178.078 30 186.118 34.8 186.118 44.04V85.2C186.118 87.12 186.958 88.2 188.998 88.2H189.718V90H170.518V88.2H171.478C173.158 88.2 174.118 87 174.118 85.2V43.68C174.118 36.96 170.638 33.96 166.678 33.96C161.758 33.96 155.998 38.88 156.118 46.92Z"
        fill="white" />
    <path
        d="M80.7731 0V85.2C80.7731 87 81.7331 88.2 83.4131 88.2H84.3731V90H65.1731V88.2H66.0131C67.8131 88.2 68.7731 87 68.7731 85.2V10.8C68.7731 9.00001 67.8131 7.8 66.0131 7.8H65.1731V6C70.6931 6 77.7731 2.76 80.2931 0H80.7731Z"
        fill="white" />
    <path
        d="M35.04 0H35.4L56.28 84.6C56.88 86.88 58.68 88.2 61.44 88.2H62.4V90H39.48V88.2H40.44C43.32 88.2 43.32 86.52 42.84 84.72L36.84 60.6H14.52L8.4 85.44C7.92 87.24 8.04 88.2 9.96 88.2H11.52V90H0V88.2H2.16C3.96 88.2 5.16 86.52 5.4 85.2L24.96 6C29.52 6 35.04 1.68 35.04 0ZM25.68 15.6L15.24 57.6H36.12L25.68 15.6Z"
        fill="white" />
    <path
        d="M114.2 91.178C125.719 91.1765 137.117 80.9765 137.117 60.458C137.117 40.6069 126.323 30.528 115.127 29.9999L115.09 32.442C120.22 33.2926 125.117 42.6313 125.117 60.458C125.117 79.236 119.703 88.5975 114.236 88.7754L114.2 91.178Z"
        fill="white" />
    <path
        d="M112.133 32.4824C106.806 32.7407 101.437 42.1005 101.2 60.6769C100.972 78.4473 106.043 87.8914 111.28 88.8037L111.243 91.2511C100.065 90.6728 89.2 80.3681 89.2 60.5569C89.2 40.3181 100.673 30.1184 112.17 30.077L112.133 32.4824Z"
        fill="white" />
</svg>