<svg width="357" height="92" viewBox="0 0 357 92" fill="none" xmlns="http://www.w3.org/2000/svg">
    <path
        d="M317.435 30C325.955 30 330.635 35.64 330.635 42.24C330.635 45.36 328.475 46.92 326.315 46.92C324.035 46.92 321.875 45.36 321.875 42.24C321.875 36.6 319.355 34.08 314.795 34.08C310.115 34.08 304.475 38.52 304.595 46.92V85.2C304.595 87 305.555 88.2 307.355 88.2H308.195V90H288.995V88.2H289.955C291.635 88.2 292.595 87 292.595 85.2V40.8C292.595 39 291.635 37.8 289.955 37.8H288.995V36C294.515 36 301.715 32.76 304.235 30H304.595V38.04C306.995 33.72 312.155 30 317.435 30Z"
        fill="white" />
    <path
        d="M243.019 43.68C243.019 35.4 252.739 30 262.339 30C272.059 30 281.659 35.4 281.659 49.08V85.2C281.659 87.12 282.379 88.2 284.419 88.2H285.259V90H269.659L269.539 85.56C265.459 89.28 260.419 91.2 255.499 91.2C247.219 91.2 239.659 85.56 239.659 73.8C239.659 54.24 260.419 54.84 269.659 46.32V45.36C269.659 36.24 265.339 32.4 261.019 32.4C256.339 32.4 251.659 36.72 251.659 43.68C251.659 46.8 249.499 48.36 247.339 48.36C245.179 48.36 243.019 46.8 243.019 43.68ZM269.659 82.8V49.44C260.179 56.64 251.419 58.44 251.419 73.56C251.539 81.12 255.859 86.04 261.499 86.04C264.019 86.04 266.899 85.08 269.659 82.8Z"
        fill="white" />
    <path
        d="M205.604 60C205.724 77.52 211.484 88.32 218.924 88.32C223.124 88.32 227.924 84.84 232.604 77.16L234.764 78.36C230.684 87 223.604 91.32 216.524 91.32C205.124 91.32 193.604 80.52 193.604 59.88C193.604 38.4 205.844 30 216.764 30C226.244 30 237.884 35.76 237.284 60H205.604ZM205.604 57.6H225.884C227.084 43.56 223.604 32.4 216.884 32.4C210.164 32.4 205.724 38.4 205.604 57.6Z"
        fill="white" />
    <path
        d="M156.118 46.92V85.2C156.118 87 157.078 88.2 158.878 88.2H159.718V90H140.518V88.2H141.478C143.158 88.2 144.118 87 144.118 85.2V40.8C144.118 39 143.158 37.8 141.358 37.8H140.518V36C146.038 36 153.238 32.76 155.758 30H156.118V37.2C158.878 32.28 164.398 30 170.038 30C178.078 30 186.118 34.8 186.118 44.04V85.2C186.118 87.12 186.958 88.2 188.998 88.2H189.718V90H170.518V88.2H171.478C173.158 88.2 174.118 87 174.118 85.2V43.68C174.118 36.96 170.638 33.96 166.678 33.96C161.758 33.96 155.998 38.88 156.118 46.92Z"
        fill="white" />
    <path
        d="M80.7731 0V85.2C80.7731 87 81.7331 88.2 83.4131 88.2H84.3731V90H65.1731V88.2H66.0131C67.8131 88.2 68.7731 87 68.7731 85.2V10.8C68.7731 9.00001 67.8131 7.8 66.0131 7.8H65.1731V6C70.6931 6 77.7731 2.76 80.2931 0H80.7731Z"
        fill="white" />
    <path
        d="M35.04 0H35.4L56.28 84.6C56.88 86.88 58.68 88.2 61.44 88.2H62.4V90H39.48V88.2H40.44C43.32 88.2 43.32 86.52 42.84 84.72L36.84 60.6H14.52L8.4 85.44C7.92 87.24 8.04 88.2 9.96 88.2H11.52V90H0V88.2H2.16C3.96 88.2 5.16 86.52 5.4 85.2L24.96 6C29.52 6 35.04 1.68 35.04 0ZM25.68 15.6L15.24 57.6H36.12L25.68 15.6Z"
        fill="white" />
    <path
        d="M114.2 91.178C125.719 91.1765 137.117 80.9765 137.117 60.458C137.117 40.6069 126.323 30.528 115.127 29.9999L115.09 32.442C120.221 33.2926 125.117 42.6313 125.117 60.458C125.117 79.236 119.703 88.5975 114.236 88.7754L114.2 91.178Z"
        fill="white" />
    <path
        d="M112.133 32.4824C106.807 32.7407 101.437 42.1005 101.2 60.6769C100.972 78.4473 106.043 87.8914 111.28 88.8037L111.243 91.2511C100.065 90.6728 89.2 80.3681 89.2 60.5569C89.2 40.3181 100.673 30.1184 112.17 30.077L112.133 32.4824Z"
        fill="white" />
    <path
        d="M344.033 0H347.491L350.616 9.8931L353.742 0H357V0.393102H356.801C356.468 0.393102 356.269 0.589655 356.269 0.982758V18.0172C356.269 18.3448 356.468 18.6069 356.801 18.6069H357V19H352.611V18.6069H352.811C353.21 18.6069 353.409 18.3448 353.409 17.9517V3.21034L349.818 14.6103H349.153L345.43 2.88276V18.0172C345.43 18.3448 345.629 18.6069 346.028 18.6069H346.228V19H344.033V18.6069H344.233C344.565 18.6069 344.765 18.3448 344.765 17.9517V0.982758C344.765 0.589655 344.565 0.393102 344.233 0.393102H344.033V0ZM335.455 0.655172H334.923C332.662 0.655172 331.665 2.2931 331.665 4.84828H331V0H342.77V4.84828H342.105C342.105 2.2931 341.041 0.655172 338.847 0.655172H338.315V18.0172C338.315 18.4103 338.514 18.6724 338.913 18.6724H339.113V19H334.657V18.6069H334.857C335.256 18.6724 335.455 18.4103 335.455 18.0172V0.655172Z"
        fill="white" />
</svg>