<svg width="191" height="62" viewBox="0 0 191 62" fill="none" xmlns="http://www.w3.org/2000/svg">
    <path
        d="M176.917 0C185.437 0 190.117 5.64 190.117 12.24C190.117 15.36 187.957 16.92 185.797 16.92C183.517 16.92 181.357 15.36 181.357 12.24C181.357 6.6 178.837 4.08 174.277 4.08C169.597 4.08 163.957 8.52 164.077 16.92V55.2C164.077 57 165.037 58.2 166.837 58.2H167.677V60H148.477V58.2H149.437C151.117 58.2 152.077 57 152.077 55.2V10.8C152.077 9 151.117 7.8 149.437 7.8H148.477V6C153.997 6 161.197 2.76 163.717 0H164.077V8.04C166.477 3.72 171.637 0 176.917 0Z"
        fill="white" />
    <path
        d="M102.501 13.68C102.501 5.4 112.221 0 121.821 0C131.541 0 141.141 5.4 141.141 19.08V55.2C141.141 57.12 141.861 58.2 143.901 58.2H144.741V60H129.141L129.021 55.56C124.941 59.28 119.901 61.2 114.981 61.2C106.701 61.2 99.1406 55.56 99.1406 43.8C99.1406 24.24 119.901 24.84 129.141 16.32V15.36C129.141 6.24 124.821 2.4 120.501 2.4C115.821 2.4 111.141 6.72 111.141 13.68C111.141 16.8 108.981 18.36 106.821 18.36C104.661 18.36 102.501 16.8 102.501 13.68ZM129.141 52.8V19.44C119.661 26.64 110.901 28.44 110.901 43.56C111.021 51.12 115.341 56.04 120.981 56.04C123.501 56.04 126.381 55.08 129.141 52.8Z"
        fill="white" />
    <path
        d="M65.0859 30C65.2059 47.52 70.9659 58.32 78.4059 58.32C82.6059 58.32 87.4059 54.84 92.0859 47.16L94.2459 48.36C90.1659 57 83.0859 61.32 76.0059 61.32C64.6059 61.32 53.0859 50.52 53.0859 29.88C53.0859 8.4 65.3259 0 76.2459 0C85.7259 0 97.3659 5.76 96.7659 30H65.0859ZM65.0859 27.6H85.3659C86.5659 13.56 83.0859 2.4 76.3659 2.4C69.6459 2.4 65.2059 8.4 65.0859 27.6Z"
        fill="white" />
    <path
        d="M15.6 16.92V55.2C15.6 57 16.56 58.2 18.36 58.2H19.2V60H0V58.2H0.960007C2.64001 58.2 3.60001 57 3.60001 55.2V10.8C3.60001 9 2.64 7.8 0.839996 7.8H0V6C5.52 6 12.72 2.76 15.24 0H15.6V7.2C18.36 2.28 23.88 0 29.52 0C37.56 0 45.6 4.8 45.6 14.04V55.2C45.6 57.12 46.44 58.2 48.48 58.2H49.2V60H30V58.2H30.96C32.64 58.2 33.6 57 33.6 55.2V13.68C33.6 6.96 30.12 3.96 26.16 3.96C21.24 3.96 15.48 8.88 15.6 16.92Z"
        fill="white" />
</svg>