<svg width="149" height="62" viewBox="0 0 149 62" fill="none" xmlns="http://www.w3.org/2000/svg">
    <path
        d="M116.604 30C116.724 47.52 122.484 58.32 129.924 58.32C134.124 58.32 138.924 54.84 143.604 47.16L145.764 48.36C141.684 57 134.604 61.32 127.524 61.32C116.124 61.32 104.604 50.52 104.604 29.88C104.604 8.4 116.844 0 127.764 0C137.244 0 148.884 5.76 148.284 30H116.604ZM116.604 27.6H136.884C138.084 13.56 134.604 2.4 127.884 2.4C121.164 2.4 116.724 8.4 116.604 27.6Z"
        fill="white" />
    <path
        d="M67.1184 16.92V55.2C67.1184 57 68.0784 58.2 69.8784 58.2H70.7184V60H51.5184V58.2H52.4784C54.1584 58.2 55.1184 57 55.1184 55.2V10.8C55.1184 9 54.1584 7.8 52.3584 7.8H51.5184V6C57.0384 6 64.2384 2.76 66.7584 0H67.1184V7.2C69.8784 2.28 75.3984 0 81.0384 0C89.0784 0 97.1184 4.8 97.1184 14.04V55.2C97.1184 57.12 97.9584 58.2 99.9984 58.2H100.718V60H81.5184V58.2H82.4784C84.1584 58.2 85.1184 57 85.1184 55.2V13.68C85.1184 6.96 81.6384 3.96 77.6784 3.96C72.7584 3.96 66.9984 8.88 67.1184 16.92Z"
        fill="white" />
    <path
        d="M25.2 61.178C36.7191 61.1765 48.1174 50.9765 48.1174 30.458C48.1174 10.6069 37.3227 0.527959 26.1269 -8.88947e-05L26.0899 2.44195C31.2205 3.29265 36.1174 12.6313 36.1174 30.458C36.1174 49.236 30.7029 58.5975 25.2364 58.7754L25.2 61.178Z"
        fill="white" />
    <path
        d="M23.1332 2.48236C17.8065 2.74067 12.4366 12.1005 12.2 30.6769C11.9721 48.4473 17.0429 57.8914 22.2798 58.8037L22.2428 61.2511C11.0646 60.6728 0.199951 50.3681 0.199951 30.5569C0.199951 10.3181 11.6731 0.118408 23.1696 0.0769932L23.1332 2.48236Z"
        fill="white" />
</svg>