<svg width="352" height="392" viewBox="0 0 352 392" fill="none" xmlns="http://www.w3.org/2000/svg">
    <path
        d="M159.128 391.532C232.448 391.523 305 326.244 305 194.928C305 67.8833 236.29 3.37896 165.028 -0.000488281L164.792 15.6283C197.449 21.0727 228.619 80.8392 228.619 194.928C228.619 315.105 194.154 375.017 159.359 376.156L159.128 391.532Z"
        fill="#4C4E49" />
    <path
        d="M145.973 15.8869C112.068 17.5401 77.8876 77.4419 76.3813 196.329C74.9312 310.058 107.207 370.499 140.541 376.337L140.305 392C69.1545 388.299 0 322.35 0 195.561C0 66.0349 73.028 0.75788 146.205 0.492828L145.973 15.8869Z"
        fill="#4C4E49" />
    <path
        d="M328.52 0H334.76L340.4 18.12L346.04 0H351.92V0.719998H351.56C350.96 0.719998 350.6 1.08 350.6 1.8V33C350.6 33.6 350.96 34.08 351.56 34.08H351.92V34.8H344V34.08H344.36C345.08 34.08 345.44 33.6 345.44 32.88V5.88L338.96 26.76H337.76L331.04 5.28V33C331.04 33.6 331.4 34.08 332.12 34.08H332.48V34.8H328.52V34.08H328.88C329.48 34.08 329.84 33.6 329.84 32.88V1.8C329.84 1.08 329.48 0.719998 328.88 0.719998H328.52V0ZM313.04 1.2H312.08C308 1.2 306.2 4.2 306.2 8.88H305V0H326.24V8.88H325.04C325.04 4.2 323.12 1.2 319.16 1.2H318.2V33C318.2 33.72 318.56 34.2 319.28 34.2H319.64V34.8H311.6V34.08H311.96C312.68 34.2 313.04 33.72 313.04 33V1.2Z"
        fill="#4C4E49" />
</svg>